<svg width="13" height="13" viewBox="0 0 13 13" fill="none" xmlns="http://www.w3.org/2000/svg">
<path d="M11.1442 2.80381L1.81147 12.1269C1.673 12.2654 1.49897 12.333 1.28937 12.3298C1.07975 12.3266 0.90572 12.2558 0.76727 12.1173C0.628804 11.9788 0.55957 11.8064 0.55957 11.6C0.55957 11.3936 0.628804 11.2212 0.76727 11.0827L10.0904 1.74998H1.89417C1.68167 1.74998 1.50355 1.67808 1.3598 1.53428C1.21606 1.39046 1.1442 1.21226 1.1442 0.999681C1.1442 0.787081 1.21606 0.60899 1.3598 0.465407C1.50355 0.321823 1.68167 0.250031 1.89417 0.250031H11.7403C11.9964 0.250031 12.2111 0.336648 12.3843 0.509882C12.5575 0.683115 12.6441 0.897773 12.6441 1.15386V11C12.6441 11.2125 12.5722 11.3906 12.4284 11.5344C12.2846 11.6781 12.1064 11.75 11.8938 11.75C11.6812 11.75 11.5032 11.6781 11.3596 11.5344C11.216 11.3906 11.1442 11.2125 11.1442 11V2.80381Z" fill="white"/>
</svg>
