<svg width="14" height="18" viewBox="0 0 14 18" fill="none" xmlns="http://www.w3.org/2000/svg">
<g opacity="0.7">
<path d="M7 10.4412C6.59985 10.4412 6.25962 10.301 5.97931 10.0207C5.699 9.74038 5.55884 9.40015 5.55884 9C5.55884 8.59985 5.699 8.25962 5.97931 7.97932C6.25962 7.699 6.59985 7.55884 7 7.55884C7.40015 7.55884 7.74038 7.699 8.02068 7.97932C8.301 8.25962 8.44116 8.59985 8.44116 9C8.44116 9.40015 8.301 9.74038 8.02068 10.0207C7.74038 10.301 7.40015 10.4412 7 10.4412ZM6.38237 5.08824V2.61765C6.38237 2.44265 6.44158 2.29596 6.56001 2.17757C6.67844 2.05919 6.8252 2 7.00027 2C7.17535 2 7.32201 2.05919 7.44026 2.17757C7.55851 2.29596 7.61763 2.44265 7.61763 2.61765V5.08824C7.61763 5.26323 7.55842 5.40992 7.43999 5.5283C7.32155 5.64668 7.1748 5.70587 6.99973 5.70587C6.82465 5.70587 6.67799 5.64668 6.55974 5.5283C6.44149 5.40992 6.38237 5.26323 6.38237 5.08824ZM6.38237 15.3824V12.9118C6.38237 12.7368 6.44158 12.5901 6.56001 12.4717C6.67844 12.3533 6.8252 12.2941 7.00027 12.2941C7.17535 12.2941 7.32201 12.3533 7.44026 12.4717C7.55851 12.5901 7.61763 12.7368 7.61763 12.9118V15.3824C7.61763 15.5574 7.55842 15.704 7.43999 15.8224C7.32155 15.9408 7.1748 16 6.99973 16C6.82465 16 6.67799 15.9408 6.55974 15.8224C6.44149 15.704 6.38237 15.5574 6.38237 15.3824ZM10.9118 8.38237H13.3824C13.5574 8.38237 13.704 8.44158 13.8224 8.56001C13.9408 8.67845 14 8.8252 14 9.00027C14 9.17535 13.9408 9.32202 13.8224 9.44026C13.704 9.55851 13.5574 9.61763 13.3824 9.61763H10.9118C10.7368 9.61763 10.5901 9.55842 10.4717 9.43999C10.3533 9.32156 10.2941 9.1748 10.2941 8.99973C10.2941 8.82465 10.3533 8.67799 10.4717 8.55974C10.5901 8.44149 10.7368 8.38237 10.9118 8.38237ZM0.617649 8.38237H3.08824C3.26323 8.38237 3.40992 8.44158 3.5283 8.56001C3.64668 8.67845 3.70587 8.8252 3.70587 9.00027C3.70587 9.17535 3.64668 9.32202 3.5283 9.44026C3.40992 9.55851 3.26323 9.61763 3.08824 9.61763H0.617649C0.442648 9.61763 0.295957 9.55842 0.177574 9.43999C0.0591913 9.32156 0 9.1748 0 8.99973C0 8.82465 0.0591913 8.67799 0.177574 8.55974C0.295957 8.44149 0.442648 8.38237 0.617649 8.38237Z" fill="#D6D6D6"/>
</g>
</svg>
