<svg width="24" height="24" viewBox="0 0 24 24" fill="none" xmlns="http://www.w3.org/2000/svg">
<mask id="mask0_18_1487" style="mask-type:alpha" maskUnits="userSpaceOnUse" x="0" y="0" width="24" height="24">
<rect width="24" height="24" fill="#D9D9D9"/>
</mask>
<g mask="url(#mask0_18_1487)">
<path d="M8.86162 19.4999H6.3078C5.80908 19.4999 5.38312 19.3233 5.02992 18.9701C4.67671 18.6169 4.5001 18.1909 4.5001 17.6922V15.1384L2.64242 13.2653C2.47192 13.0846 2.34307 12.8846 2.25587 12.6653C2.16871 12.4461 2.12512 12.2243 2.12512 11.9999C2.12512 11.7756 2.16871 11.5538 2.25587 11.3346C2.34306 11.1153 2.47191 10.9153 2.64242 10.7346L4.5001 8.8615V6.30768C4.5001 5.80896 4.67671 5.383 5.02992 5.0298C5.38312 4.67658 5.80908 4.49997 6.3078 4.49997H8.86162L10.7347 2.6423C10.9155 2.47178 11.1155 2.34294 11.3347 2.25577C11.5539 2.16859 11.7757 2.125 12.0001 2.125C12.2244 2.125 12.4462 2.16859 12.6654 2.25577C12.8847 2.34294 13.0847 2.47178 13.2654 2.6423L15.1385 4.49997H17.6923C18.1911 4.49997 18.617 4.67658 18.9702 5.0298C19.3234 5.383 19.5 5.80896 19.5 6.30768V8.8615L21.3577 10.7346C21.5282 10.9153 21.6571 11.1153 21.7442 11.3346C21.8314 11.5538 21.875 11.7756 21.875 11.9999C21.875 12.2243 21.8314 12.4461 21.7442 12.6653C21.6571 12.8846 21.5282 13.0846 21.3577 13.2653L19.5 15.1384V17.6922C19.5 18.1909 19.3234 18.6169 18.9702 18.9701C18.617 19.3233 18.1911 19.4999 17.6923 19.4999H15.1385L13.2654 21.3576C13.0847 21.5281 12.8847 21.6569 12.6654 21.7442C12.4462 21.8313 12.2244 21.8749 12.0001 21.8749C11.7757 21.8749 11.5539 21.8313 11.3347 21.7442C11.1155 21.657 10.9155 21.5281 10.7347 21.3576L8.86162 19.4999ZM9.50007 17.9999L11.7789 20.2788C11.8366 20.3365 11.9103 20.3653 12.0001 20.3653C12.0898 20.3653 12.1635 20.3365 12.2212 20.2788L14.5001 17.9999H17.6923C17.7821 17.9999 17.8558 17.9711 17.9135 17.9134C17.9712 17.8557 18.0001 17.782 18.0001 17.6922V14.4999L20.2789 12.2211C20.3366 12.1634 20.3654 12.0897 20.3654 11.9999C20.3654 11.9102 20.3366 11.8365 20.2789 11.7788L18.0001 9.49995V6.30768C18.0001 6.21793 17.9712 6.1442 17.9135 6.0865C17.8558 6.0288 17.7821 5.99995 17.6923 5.99995H14.5001L12.2212 3.72112C12.1635 3.66342 12.0898 3.63457 12.0001 3.63457C11.9103 3.63457 11.8366 3.66342 11.7789 3.72112L9.50007 5.99995H6.3078C6.21805 5.99995 6.14432 6.0288 6.08662 6.0865C6.02892 6.1442 6.00007 6.21793 6.00007 6.30768V9.49995L3.72125 11.7788C3.66355 11.8365 3.6347 11.9102 3.6347 11.9999C3.6347 12.0897 3.66355 12.1634 3.72125 12.2211L6.00007 14.4999V17.6922C6.00007 17.782 6.02892 17.8557 6.08662 17.9134C6.14432 17.9711 6.21805 17.9999 6.3078 17.9999H9.50007Z" fill="white"/>
</g>
</svg>
